<?xml version="1.0" encoding="utf-8"?>
<!-- Generator: Adobe Illustrator 16.0.4, SVG Export Plug-In . SVG Version: 6.00 Build 0)  -->
<!DOCTYPE svg PUBLIC "-//W3C//DTD SVG 1.1//EN" "http://www.w3.org/Graphics/SVG/1.1/DTD/svg11.dtd">
<svg version="1.1" id="Layer_1" xmlns="http://www.w3.org/2000/svg" xmlns:xlink="http://www.w3.org/1999/xlink" x="0px" y="0px"
	 width="32.004px" height="32px" viewBox="0 0 32.004 32" enable-background="new 0 0 32.004 32" xml:space="preserve">
<g>
	<path fill="#FFFFFF" d="M31.118,3.48c-1.269,0.752-2.675,1.298-4.17,1.594C25.75,3.796,24.044,3,22.156,3
		c-3.627,0-6.566,2.94-6.566,6.564c0,0.514,0.058,1.016,0.17,1.496C10.304,10.786,5.466,8.172,2.228,4.2
		C1.662,5.168,1.34,6.296,1.34,7.5c0,2.278,1.16,4.288,2.92,5.464c-1.076-0.036-2.088-0.332-2.974-0.824c0,0.028,0,0.054,0,0.082
		c0,3.18,2.264,5.834,5.266,6.438c-0.55,0.15-1.13,0.23-1.73,0.23c-0.424,0-0.834-0.043-1.236-0.119
		c0.836,2.608,3.26,4.506,6.132,4.561c-2.246,1.76-5.078,2.811-8.154,2.811c-0.53,0-1.052-0.033-1.566-0.093
		C2.904,27.912,6.354,29,10.062,29c12.077,0,18.68-10.004,18.68-18.68c0-0.284-0.006-0.568-0.02-0.85
		c1.285-0.922,2.399-2.078,3.279-3.394c-1.178,0.522-2.441,0.876-3.77,1.034C29.588,6.298,30.628,5.01,31.118,3.48z"/>
</g>
</svg>
