<?xml version="1.0" encoding="utf-8"?>
<!-- Generator: Adobe Illustrator 16.0.4, SVG Export Plug-In . SVG Version: 6.00 Build 0)  -->
<!DOCTYPE svg PUBLIC "-//W3C//DTD SVG 1.1//EN" "http://www.w3.org/Graphics/SVG/1.1/DTD/svg11.dtd">
<svg version="1.1" id="Layer_1" xmlns="http://www.w3.org/2000/svg" xmlns:xlink="http://www.w3.org/1999/xlink" x="0px" y="0px"
	 width="32px" height="32px" viewBox="0 0 32 32" enable-background="new 0 0 32 32" xml:space="preserve">
<g>
	<path fill="#FFFFFF" d="M8.572,29.102c5.3,0,8.228-3.008,8.228-6.031c0-2.424-0.716-3.879-2.928-5.442
		c-0.756-0.536-2.204-1.838-2.204-2.604c0-0.898,0.256-1.34,1.608-2.396c1.384-1.082,2.364-2.604,2.364-4.372
		c0-2.106-0.938-4.16-2.7-4.836h2.654l1.877-1.354c0,0-6.281,0-8.375,0c-3.752,0-7.284,2.844-7.284,6.138
		c0,3.366,2.558,6.084,6.378,6.084c0.266,0,0.524-0.006,0.776-0.024c-0.248,0.474-0.426,1.008-0.426,1.564
		c0,0.936,0.504,1.693,1.14,2.314c-0.48,0-0.946,0.014-1.452,0.014C3.578,18.154,0,21.116,0,24.186
		C0,27.21,3.924,29.102,8.572,29.102z M9.4,13.434C7.242,13.37,5.192,11.02,4.82,8.188C4.448,5.354,5.894,3.186,8.05,3.25
		c2.156,0.064,4.208,2.338,4.58,5.17C13.004,11.254,11.556,13.498,9.4,13.434z M9.114,18.936c0.75,0.008,1.45,0.129,2.084,0.334
		c1.744,1.211,2.996,1.896,3.348,3.28c0.066,0.28,0.102,0.568,0.102,0.864c0,2.443-1.574,4.354-6.092,4.354
		c-3.214,0-5.534-2.033-5.534-4.478C3.022,20.895,5.9,18.902,9.114,18.936z M26,8V2.066h-2V8h-6v2h6v6.066h2V10h6V8H26z"/>
</g>
</svg>
